<?xml version="1.0" encoding="UTF-8"?>
<svg id="Capa_1" xmlns="http://www.w3.org/2000/svg" viewBox="72 430 936 220">
  <defs>
    <style>
      .cls-1 {
        fill: currentColor;
      }
    </style>
  </defs>
  <g>
    <path class="cls-1" d="M76,434.71h14.58l49.52,210.55h-14.58l-49.52-210.55ZM191.76,434.71l-50.74,210.55h-4.25l50.74-210.55h4.25Z"/>
    <path class="cls-1" d="M202.38,645.26h-14.28v-210.55h14.28v210.55Z"/>
    <path class="cls-1" d="M301.44,438.66h-113.93v-3.95h113.93v3.95ZM237.33,645.26v-210.55h14.28v210.55h-14.28Z"/>
    <path class="cls-1" d="M304.67,434.71h-14.58l1.64,7,29.61,126.67.92,3.95,17.04,72.92h14.58l-49.22-210.54ZM321.34,568.39l.92,3.95h2.76v-3.95h-3.68ZM259.4,568.39l-.91,3.95h1.57l.97-3.95h-1.63ZM289.18,434.71l-51.05,210.54h4.25l17.67-72.92.97-3.95,30.7-126.67,1.69-7h-4.24Z"/>
  </g>
  <g>
    <path class="cls-1" d="M365.34,639.11c-9.78-4.74-17.33-11.01-22.67-18.82-5.33-7.8-8.5-16.25-9.48-25.33h5.93c.99,6.92,3.5,13.83,7.55,20.74,4.05,6.91,10.47,12.84,19.26,17.78,8.79,4.94,20.1,7.4,33.93,7.4,11.06,0,20.84-2.12,29.33-6.37,8.49-4.25,15.01-9.92,19.55-17.04,4.54-7.11,6.81-15.01,6.81-23.7,0-11.26-2.57-20.19-7.7-26.81-5.14-6.62-11.51-11.51-19.11-14.67-7.61-3.15-17.83-6.42-30.67-9.77-13.43-3.56-24.2-7.11-32.3-10.67-8.1-3.56-14.96-9.04-20.59-16.44-5.63-7.4-8.44-17.43-8.44-30.07,0-9.08,2.52-17.63,7.55-25.63,5.04-8,12.24-14.37,21.63-19.11,9.38-4.74,20.1-7.11,32.15-7.11s22.81,2.17,31.7,6.51c8.89,4.35,15.85,9.83,20.89,16.45,5.04,6.62,8.34,13.58,9.93,20.89h-5.92c-1.38-5.73-4.25-11.55-8.59-17.48-4.35-5.92-10.57-10.91-18.67-14.96-8.1-4.05-17.88-6.07-29.33-6.07-10.08,0-19.31,1.93-27.71,5.78-8.4,3.85-15.11,9.29-20.15,16.29-5.04,7.02-7.56,15.16-7.56,24.44,0,11.46,2.62,20.59,7.85,27.4,5.23,6.82,11.7,11.85,19.41,15.11,7.7,3.26,17.97,6.57,30.82,9.93,13.43,3.56,24.15,7.06,32.15,10.52,8,3.46,14.76,8.79,20.3,16,5.53,7.21,8.3,17.04,8.3,29.48,0,8.69-2.32,17.09-6.96,25.18-4.64,8.1-11.61,14.67-20.89,19.7-9.29,5.04-20.55,7.55-33.78,7.55s-24.74-2.37-34.52-7.11Z"/>
    <path class="cls-1" d="M416.42,435.57v5.32h60.75v203.27h5.94v-203.27h38.78v-5.32h-105.47Z"/>
    <path class="cls-1" d="M649.02,435.57v129.46c0,10.51-.87,19.88-2.68,28.12-2.68,12.5-7.4,22.4-14.18,29.64-11.26,12.04-26.6,18.07-45.94,18.07s-35.43-6.03-46.97-18.07c-11.54-12.04-17.36-31.29-17.36-57.76v-129.46h-5.88v129.46c0,27.47,6.31,47.84,18.94,61.19,12.66,13.31,29.71,20,51.26,20s38.38-6.59,50.48-19.85c3.8-4.14,7.03-8.99,9.64-14.53,2.55-5.44,4.54-11.54,5.94-18.32v-152.64h2.68v-5.32h-5.94Z"/>
    <path class="cls-1" d="M811.27,533.71v-.06c-.03-1-.06-1.96-.16-2.92-.37-7.4-1.31-14.4-2.74-20.97-.87-4.04-1.93-7.93-3.2-11.66-4.67-13.87-11.98-25.63-21.93-35.27-18.76-18.17-46.13-27.28-82.06-27.28h-54.84v208.6h54.84c35.93,0,63.3-9.08,82.06-27.25,9.95-9.64,17.29-21.43,21.93-35.31,1.24-3.64,2.3-7.4,3.11-11.32,1.49-6.69,2.46-13.78,2.83-21.31.09-.87.12-1.77.16-2.68.09-2.12.12-4.26.12-6.44s-.03-4.11-.12-6.13ZM805.17,549.55c-1.65,26.6-10.36,47.65-26.07,63.21-17.57,17.36-43.55,26.07-77.92,26.07h-48.9v-197.93h48.9c34.37,0,60.35,8.68,77.92,26.07,15.71,15.55,24.42,36.61,26.07,63.21.03.19.03.34.03.53.19,2.99.28,6.03.28,9.15s-.09,6.41-.31,9.49v.22Z"/>
    <path class="cls-1" d="M811.11,435.55v208.59h-5.93v-208.59h5.93Z"/>
    <path class="cls-1" d="M853.04,633.03c-15.11-8.99-26.92-21.58-35.41-37.78-8.5-16.19-12.74-34.56-12.74-55.11s4.25-38.91,12.74-55.11c8.49-16.19,20.3-28.78,35.41-37.77,15.11-8.99,32.24-13.48,51.41-13.48s36.3,4.5,51.41,13.48c15.11,8.99,26.91,21.58,35.41,37.77,8.49,16.2,12.74,34.57,12.74,55.11s-4.25,38.92-12.74,55.11c-8.5,16.2-20.3,28.79-35.41,37.78-15.11,8.99-32.25,13.48-51.41,13.48s-36.3-4.49-51.41-13.48ZM951.85,628.89c14.22-8.2,25.43-19.95,33.63-35.26,8.19-15.3,12.3-33.13,12.3-53.48s-4.1-38.17-12.3-53.48c-8.2-15.3-19.41-27.06-33.63-35.26-14.22-8.2-30.03-12.3-47.41-12.3s-33.19,4.1-47.41,12.3c-14.22,8.2-25.43,19.95-33.63,35.26-8.2,15.31-12.3,33.14-12.3,53.48s4.1,38.18,12.3,53.48c8.2,15.31,19.41,27.06,33.63,35.26,14.22,8.2,30.02,12.3,47.41,12.3s33.19-4.1,47.41-12.3Z"/>
  </g>
</svg>